<?xml version="1.0" encoding="utf-8"?>
<!-- Generator: Adobe Illustrator 16.0.0, SVG Export Plug-In . SVG Version: 6.00 Build 0)  -->
<!DOCTYPE svg PUBLIC "-//W3C//DTD SVG 1.1//EN" "http://www.w3.org/Graphics/SVG/1.1/DTD/svg11.dtd">
<svg version="1.1" id="Layer_1" xmlns="http://www.w3.org/2000/svg" xmlns:xlink="http://www.w3.org/1999/xlink" x="0px" y="0px"
	 width="512px" height="512px" viewBox="0 0 512 512" enable-background="new 0 0 512 512" xml:space="preserve">
<path fill="#0F2036" d="M332.646,147.592l2.582,3.442"/>
<path fill="#0F2036" d="M161.355,193.212c-19.588,0.84-39.64,3.311-58.532,8.729c-10.314,2.957-21.787,7.404-29.218,15.373
	c-13.512,14.488-5.16,34.723,12.003,41.26c3.776,1.438,8.823,3.337,12.911,2.361c4.514-1.078,8.059-6.059,11.19-9.19l24.102-24.102
	l69.721-69.722l19.798-19.797c3.979-3.979,7.762-8.788,12.912-11.19c-6.488-2.724-17.447,0.239-24.102,1.833
	c-10.753,2.577-22.81,7.65-30.763,15.604C169.82,155.927,162.051,177.04,161.355,193.212z"/>
<path fill="#0F2036" d="M98.519,261.212c5.088,2.049,8.738-2.72,12.05-6.027l23.242-23.239l72.303-72.304l20.659-20.657
	c3.979-3.979,8.788-7.762,11.189-12.912c-6.571,1.715-10.848,7.405-15.494,12.051l-24.962,24.961l-64.556,64.557
	C121.953,238.639,111.232,252.256,98.519,261.212z"/>
<path fill="#0F2036" d="M103.683,262.072c3.728,0,8.513,0.785,12.05-0.52c4.405-1.624,7.959-6.579,11.19-9.811l23.241-23.24
	l70.583-70.583l19.797-19.797c3.98-3.979,7.762-8.788,12.912-11.19c-3.558-1.493-11.663-1.971-15.129,0.023
	c-3.716,2.141-6.82,6.432-9.833,9.445l-17.215,17.216l-71.443,71.443C128.019,236.876,113.306,248.413,103.683,262.072z"/>
<path fill="#0F2036" d="M116.596,262.072c6.245-0.852,10.39-6.087,14.632-10.33l23.241-23.24l67.14-67.139
	c11.27-11.269,25.253-22.264,34.431-35.292c-6.417,1.019-10.23,5.926-14.633,10.329l-24.102,24.102l-67.139,67.139
	C139.168,238.639,125.55,249.359,116.596,262.072z"/>
<path fill="#0F2036" d="M120.038,260.351c13.916,5.828,25.265-9.771,33.569-18.076l8.608-8.608l70.583-70.582
	c11.816-11.816,26.532-23.354,36.151-37.013c-3.727,0-8.511-0.786-12.05,0.521c-4.404,1.623-7.959,6.577-11.19,9.809l-23.241,23.24
	l-69.721,69.722l-19.797,19.797C128.97,253.14,125.188,257.948,120.038,260.351z"/>
<path fill="#0F2036" d="M137.253,258.629c5.779-0.435,9.014-4.709,12.912-8.608l21.519-21.519l69.721-69.721l19.798-19.797
	c3.979-3.979,8.788-7.762,11.188-12.912c-5.589,0.863-9.079,5.636-12.912,9.469l-24.1,24.101l-65.418,65.419
	C159.24,235.782,145.986,246.232,137.253,258.629z"/>
<path fill="#0F2036" d="M141.557,258.629c4.885-0.948,11.061-1.258,15.494-3.584c4.333-2.272,7.775-6.772,11.19-10.188
	l18.937-18.937l68-68l19.797-19.797c3.729-3.729,7.227-8.079,12.051-10.33c-9.641-5.775-16.785,1.292-23.24,7.747l-17.215,17.215
	l-69.721,69.721C165.305,234.021,150.957,245.284,141.557,258.629z"/>
<path fill="#0F2036" d="M157.912,255.185c2.312-0.43,4.537-0.758,6.886-0.859c1.263-4.507,6.221-7.942,9.469-11.19l24.101-24.101
	l60.253-60.253c10.176-10.177,22.696-20.082,30.986-31.848c-6.417,1.019-10.229,5.925-14.634,10.329l-21.517,21.519l-62.837,62.836
	C179.897,232.34,166.645,242.789,157.912,255.185z"/>
<path fill="#0F2036" d="M163.937,253.464c4.855-0.21,10.955-0.932,15.348-3.145c3.423-1.722,6.084-5.373,8.754-8.045l17.215-17.215
	l65.418-65.418l19.798-19.798c3.508-3.509,7.857-6.874,10.329-11.189c-3.177-0.253-7.222-1.891-10.329-1.056
	c-4.062,1.091-7.477,5.946-10.329,8.802l-20.661,20.658l-62.834,62.836C185.923,230.618,172.67,241.067,163.937,253.464z"/>
<path fill="#0F2036" d="M181.151,250.021c5.56-1.121,9.042-5.598,12.912-9.468l21.519-21.519l58.532-58.533
	c9.902-9.903,22.06-19.534,30.127-30.986c-5.718,0.637-9.014,4.711-12.911,8.607l-18.937,18.936l-62.835,62.836l-18.077,18.076
	C187.752,241.7,183.402,245.198,181.151,250.021z"/>
<path fill="#0F2036" d="M185.455,249.16c4.972-0.669,11.66-1.413,16.11-3.812c3.418-1.844,6.138-5.521,8.853-8.236l15.494-15.494
	l57.669-57.67l19.798-19.798c3.511-3.509,7.857-6.874,10.329-11.189c-2.877-0.785-6.445-2.85-9.469-1.982
	c-3.746,1.073-6.82,5.359-9.468,8.007l-18.075,18.074l-60.252,60.254C206.267,227.49,193.745,237.395,185.455,249.16z"/>
<path fill="#0F2036" d="M202.67,245.718c2.047-0.494,3.924-0.768,6.026-0.861c2.25-4.824,6.601-8.322,10.329-12.051l18.938-18.937
	l51.645-51.646c8.813-8.811,19.506-17.354,26.685-27.544c-5.009-0.182-7.846,3.547-11.189,6.886l-18.078,18.076l-58.531,58.532
	l-16.354,16.354C208.664,238.004,204.767,241.224,202.67,245.718z"/>
<path fill="#0F2036" d="M208.696,243.996c4.275-0.183,10.641-0.366,14.389-2.593c2.736-1.627,4.904-4.638,7.131-6.875l13.771-13.772
	l56.811-56.81l15.494-15.495c2.588-2.587,5.049-5.819,8.606-6.885c-1.477-2.701-5.068-6.534-8.606-5.641
	c-3.041,0.768-5.63,4.386-7.748,6.501l-14.632,14.631l-58.532,58.533l-17.216,17.215
	C214.688,236.283,210.792,239.502,208.696,243.996z"/>
<path fill="#0F2036" d="M224.19,241.414c4.741-0.375,7.108-3.657,10.33-6.886l17.215-17.215l49.063-49.063
	c8.536-8.537,18.866-16.808,25.822-26.684c-4.261-0.785-6.607,2.322-9.469,5.165l-16.354,16.354l-52.506,52.507l-15.494,15.493
	C229.577,234.307,226.128,237.255,224.19,241.414z"/>
<path fill="#0F2036" d="M326.621,141.565l-68,68.001l-19.798,19.796c-3.729,3.729-8.08,7.227-10.33,12.051
	c4.412-0.819,9.76-0.391,13.773-2.572c3.659-1.989,6.558-5.708,9.468-8.618l15.494-15.493l43.038-43.039l15.493-15.494
	c2.005-2.009,5.732-4.703,6.095-7.747C332.224,145.334,328.777,143.103,326.621,141.565z"/>
<path fill="#0F2036" d="M419.582,206.123c2.063,0.696,4.66,2.117,6.887,1.736"/>
<path fill="#0F2036" d="M332.646,148.452l-59.393,59.393c-10.176,10.177-22.698,20.081-30.986,31.848
	c5.272-0.175,7.611-3.297,11.19-6.886l15.493-15.494l66.278-66.279C334.278,149.78,333.899,149.402,332.646,148.452z"/>
<path fill="#0F2036" d="M247.431,239.692c36.897-0.762,71.606,8.638,107.595,15.837c20.212,4.044,43.139,9.916,63.697,5.316
	c15.012-3.359,31.575-15.784,25.73-33.204c-0.916-2.738-2.347-5.405-4.03-7.746c-2.155-2.997-4.902-5.463-7.929-7.559
	c-22.461-15.553-55.304-17.99-81.771-19.125c-0.656-15.012-7.508-29.33-14.634-42.178c-9.496,4.429-17.59,15.868-24.962,23.241
	l-43.898,43.899C260.812,224.59,251.291,231.415,247.431,239.692z"/>
<path fill="#0F2036" d="M426.469,209.566"/>
<path fill="#0F2036" d="M169.102,162.224l0.861,0.86L169.102,162.224"/>
<path fill="#0F2036" d="M436.798,215.591l2.582,3.443"/>
<path fill="#0F2036" d="M440.944,219.893c0.037,2.153,1.679,4.268,2.739,6.027 M136.392,194.933l0.861,0.861L136.392,194.933z"/>
<path fill="#0F2036" d="M69.253,221.617"/>
<path fill="#0F2036" d="M68.392,241.414"/>
<path fill="#FF8080" d="M429.052,256.907l0.858,0.861L429.052,256.907"/>
<path fill="#FF8080" d="M152.748,280.148c5.213-2.431,9.626-7.388,12.911-12.051c-4.397,0.001-10.413-0.69-12.392,4.343
	C152.354,274.759,152.748,277.704,152.748,280.148z"/>
<path fill="#F26E63" d="M155.33,290.478c4.494-2.097,7.714-5.992,11.189-9.469c4.148-4.146,8.668-8.107,12.051-12.911
	c-3.728,0-8.511-0.786-12.051,0.519c-4.363,1.608-11.647,8.595-12.604,13.253C153.338,284.678,154.578,287.808,155.33,290.478z"/>
<path fill="#F26E63" d="M155.33,290.478l1.721,3.444c9.123-6.426,19.396-16.702,25.823-25.823c-5.041,0.38-7.736,3.439-11.19,6.886
	C166.427,280.229,161.41,286.194,155.33,290.478z"/>
<path fill="#F26E63" d="M160.494,302.528c5.472-2.553,9.544-7.822,13.772-12.051c7.169-7.169,15.674-14.084,21.519-22.38
	c-3.728,0-8.511-0.786-12.051,0.519c-3.116,1.149-5.463,4.088-7.747,6.367l-12.05,12.051c-2.085,2.087-5.554,4.631-6.03,7.746
	C157.518,297.324,159.551,300.259,160.494,302.528z"/>
<path fill="#F26E63" d="M161.355,302.528c0.406,1.217,0.701,1.562,1.721,2.581c7.03-4.951,12.863-12.002,18.937-18.075
	c6.074-6.074,13.124-11.907,18.076-18.937c-6.117,0.461-9.664,5.358-13.773,9.468L161.355,302.528z"/>
<path fill="#F26E63" d="M212.999,268.098c-3.727,0-8.511-0.786-12.05,0.519c-3.774,1.391-6.705,5.323-9.469,8.09l-17.215,17.215
	c-3.106,3.104-12.64,9.549-9.045,14.576c4.587,6.417,10.872-2.631,14.21-5.969C190.428,291.531,204.044,280.81,212.999,268.098z"/>
<path fill="#F26E63" d="M169.102,311.997c0.406,1.218,0.701,1.561,1.722,2.581c8.927-6.288,16.384-15.522,24.102-23.239
	c7.442-7.444,16.314-14.629,22.38-23.241c-7.035,0.53-11.663,7.359-16.355,12.051L169.102,311.997z"/>
<path fill="#F26E63" d="M230.215,268.098c-3.727,0-8.512-0.786-12.051,0.519c-4.404,1.624-7.958,6.579-11.19,9.811l-21.519,21.52
	c-3.42,3.419-7.049,6.724-10.274,10.328c-1.46,1.633-3.25,3.585-1.989,5.862c4.537,8.198,13.235-3.39,16.567-6.723l25.823-25.822
	C220.557,278.616,226.158,273.857,230.215,268.098z"/>
<path fill="#F26E63" d="M178.57,320.604c6.425,0.908,12.187-7.884,16.355-12.052l24.962-24.961
	c4.975-4.976,10.576-9.734,14.632-15.494c-7.318,0.551-12.338,8.034-17.215,12.911l-24.963,24.963
	C187.643,310.67,182.404,315.163,178.57,320.604z"/>
<path fill="#F26E63" d="M181.151,322.325c2.243,1.195,5.099,2.979,7.748,2.842c5.092-0.259,10.432-8.109,13.771-11.449
	l28.406-28.405c5.25-5.25,11.211-10.276,15.493-16.354c-10.798-3.191-16.101,3.188-23.24,10.329l-26.684,26.684
	C191.396,311.22,185.434,316.247,181.151,322.325 M261.203,287.896c7.628-3.558,15.838-12.956,20.657-19.798
	c-4.741,0-13.022-1.579-16.976,1.5C260.391,273.1,261.205,282.802,261.203,287.896z"/>
<path fill="#F26E63" d="M262.063,292.199c8.563-6.033,18.067-15.538,24.102-24.102c-6.115,0.462-9.664,5.36-13.771,9.469
	C268.084,281.875,262.548,285.762,262.063,292.199z"/>
<path fill="#F26E63" d="M264.645,301.668c5.473-2.553,9.544-7.823,13.774-12.051c6.896-6.895,15.036-13.541,20.657-21.52
	c-3.727,0-8.511-0.786-12.05,0.519c-4.092,1.509-7.332,5.949-10.33,8.949c-4.063,4.064-12.468,9.766-13.964,15.493
	C261.996,295.872,263.562,299.149,264.645,301.668z"/>
<path fill="#F26E63" d="M264.645,301.668l1.723,3.441c7.03-4.95,12.863-12.001,18.938-18.074
	c6.074-6.075,13.124-11.907,18.075-18.938c-6.116,0.462-9.664,5.36-13.772,9.469C281.616,285.557,273.89,295.156,264.645,301.668z"
	/>
<path fill="#F26E63" d="M270.672,312.857c6.422-2.995,11.39-9.669,16.354-14.635c9.627-9.63,21.42-18.988,29.266-30.125
	c-3.947,0-9.29-0.929-12.912,0.885c-3.673,1.836-6.606,5.722-9.468,8.583l-17.216,17.215c-2.801,2.801-8.035,6.408-9.203,10.329
	C266.661,307.889,269.243,310.727,270.672,312.857z"/>
<path fill="#F26E63" d="M271.533,312.857c0.405,1.219,0.7,1.561,1.72,2.581c8.928-6.288,16.385-15.523,24.103-23.24
	c7.717-7.718,16.95-15.174,23.238-24.101c-7.033,0.529-11.66,7.357-16.353,12.05L271.533,312.857z"/>
<path fill="#F26E63" d="M274.114,316.301c1.727,1.22,3.825,3.183,6.026,3.406c4.806,0.481,10.727-8.108,13.771-11.153l24.961-24.962
	c4.977-4.976,10.576-9.732,14.633-15.493c-3.727,0-8.51-0.787-12.05,0.519c-4.093,1.509-7.331,5.949-10.329,8.949l-20.658,20.657
	C285.016,303.675,277.399,309.255,274.114,316.301z"/>
<path fill="#F26E63" d="M281.86,321.465c6.503-0.277,12.005-8.562,16.354-12.912l24.963-24.961
	c4.973-4.976,10.575-9.734,14.632-15.494c-7.034,0.53-11.661,7.359-16.354,12.051l-26.685,26.683
	C290.299,311.308,284.562,315.675,281.86,321.465z"/>
<path fill="#F26E63" d="M284.442,322.325c2.433,1.283,5.729,3.225,8.608,2.645c5.114-1.032,10.234-8.576,13.771-12.112
	l28.405-28.405c5.25-5.249,11.213-10.275,15.495-16.354c-3.946,0-9.291-0.927-12.913,0.885c-6.798,3.398-12.736,11.853-18.074,17.19
	C308.19,297.717,293.844,308.981,284.442,322.325z"/>
<path fill="#F26E63" d="M293.912,325.769c7.05,0.221,12.61-8.306,17.215-12.911l28.404-28.405
	c5.25-5.249,11.214-10.275,15.494-16.354c-7.59,0.572-13.018,8.714-18.075,13.772l-27.544,27.544
	C304.156,314.664,298.195,319.69,293.912,325.769z"/>
<path fill="#F26E63" d="M246.569,268.958l-36.151,36.151c-6.62,6.622-14.399,12.995-19.797,20.659
	c6.626,0.935,12.913-8.609,17.215-12.911l41.316-41.316C248.202,270.288,247.824,269.908,246.569,268.958z"/>
<path fill="#F26E63" d="M297.355,326.63c3.541,0.446,7.705,1.624,11.188,0.343c4.71-1.736,8.592-7.211,12.05-10.672l25.824-25.823
	c3.864-3.865,15.966-12.207,12.024-18.806c-3.865-6.475-13.601,6.609-16.329,9.337l-28.406,28.405
	C308.185,314.938,301.859,320.234,297.355,326.63 M248.292,271.541l-35.292,35.291c-6.347,6.35-13.76,12.452-18.936,19.799
	c10.798,3.19,16.102-3.189,23.24-10.329l24.102-24.102C247.012,286.592,254.484,279.708,248.292,271.541z"/>
<path fill="#F26E63" d="M358.468,277.566l-31.847,31.848c-5.801,5.801-12.486,11.363-17.215,18.076
	c6.117-0.46,9.663-5.359,13.771-9.468l26.684-26.684C353.33,287.868,360.078,283.101,358.468,277.566z"/>
<path fill="#00FFFF" d="M250.013,278.427l0.861,0.861L250.013,278.427z"/>
<path fill="#1D7CA7" d="M250.013,282.73v4.305C250.727,285.287,250.727,284.478,250.013,282.73z"/>
<path fill="#F26E63" d="M357.607,282.73l-28.405,28.406c-5.249,5.249-11.212,10.275-15.494,16.354
	c16.78-1.334,31.765-13.812,39.371-28.404C355.385,294.662,359.134,287.758,357.607,282.73z"/>
<path fill="#F26E63" d="M249.152,283.592l-27.544,27.544c-5.25,5.25-11.212,10.275-15.494,16.353
	c6.734-0.748,10.955-6.649,15.494-11.188c9.356-9.356,18.445-20.784,29.266-28.405C250.399,286.323,249.947,285.009,249.152,283.592
	z"/>
<path fill="#F26E63" d="M249.152,287.896l-24.102,24.102c-4.7,4.699-9.938,9.19-13.772,14.633
	c14.742-0.307,28.642-9.295,35.188-22.38C248.788,299.611,251.257,292.925,249.152,287.896z"/>
<path fill="#F26E63" d="M160.494,302.528"/>
<path fill="#F26E63" d="M162.216,304.25l0.86,0.859L162.216,304.25z"/>
<path fill="#F26E63" d="M245.709,304.25l0.86,0.859L245.709,304.25z"/>
<path fill="#F26E63" d="M265.506,304.25l0.86,0.859L265.506,304.25z"/>
<path fill="#F26E63" d="M349.001,304.25l0.859,0.859L349.001,304.25z"/>
<path fill="#F26E63" d="M244.848,305.972l0.861,0.859L244.848,305.972z"/>
<path fill="#F26E63" d="M347.278,306.831l0.86,0.86L347.278,306.831z"/>
<path fill="#00FFFF" d="M267.229,307.693l0.858,0.859L267.229,307.693z"/>
<path fill="#1780B4" d="M346.418,307.693l0.859,0.859L346.418,307.693z"/>
<path fill="#00FFFF" d="M167.38,311.136l0.861,0.859L167.38,311.136z"/>
<path fill="#276F88" d="M241.405,311.136l0.861,0.859L241.405,311.136z"/>
<path fill="#2F7F7C" d="M168.241,311.997l0.86,0.86L168.241,311.997z"/>
<path fill="#227197" d="M236.241,316.301l0.86,0.859L236.241,316.301z"/>
<path fill="#1880B1" d="M337.81,316.301l0.861,0.859L337.81,316.301z"/>
<path fill="#00FFFF" d="M275.836,317.16l0.86,0.862L275.836,317.16z"/>
<path fill="#296A83" d="M232.797,318.881l0.861,0.861L232.797,318.881z"/>
<path fill="#2F7F7C" d="M177.709,319.742l0.86,0.86L177.709,319.742z"/>
<path fill="#2F7F7C" d="M226.772,322.325l0.861,0.86L226.772,322.325z"/>
<path fill="#00FFFF" d="M329.202,322.325l0.861,0.86L329.202,322.325z"/>
<path d="M225.05,323.186l0.861,0.86L225.05,323.186z"/>
<path fill="#00FFFF" d="M327.481,323.186l0.859,0.86L327.481,323.186z"/>
<path fill="#1D7FAF" d="M210.131,326.916c-0.382,0.384,0.526,0.334,0.574,0.285C211.087,326.82,210.179,326.87,210.131,326.916z"/>
<path fill="#0F2036" d="M158.772,373.971c6.08-4.282,11.105-10.242,16.354-15.493c4.976-4.976,10.577-9.735,14.633-15.494
	c-11.324-4.878-21.181-8.968-33.569-10.573c-5.422-0.701-12.135-0.843-12.712,6.271c-0.439,5.396,4.127,9.548,6.759,13.771
	C154.511,359.309,156.761,366.219,158.772,373.971z"/>
<path fill="#0F2036" d="M143.279,546.122c7.699-1.554,13.602-10.157,18.937-15.493l39.594-39.595L307.685,385.16l33.568-33.569
	c6.347-6.348,13.763-12.45,18.938-19.798c-7.99,1.447-13.462,9.16-18.938,14.634l-36.15,36.15L192.341,495.339l-33.569,33.568
	C153.564,534.117,146.419,539.388,143.279,546.122z"/>
<path fill="#0F2036" d="M145.861,546.122c4.398,1.491,9.129,2.383,13.772,2.583c-0.513-1.029-0.4-0.841-1.721-1.721
	c7.347-5.176,13.45-12.591,19.798-18.938l34.43-34.43l107.596-107.595l37.872-37.875c2.669-2.668,13.507-10.587,8.33-14.754
	c-5.53-4.454-11.854,4.506-15.215,7.869l-38.735,38.734L200.949,491.034C182.636,509.35,163.437,527.113,145.861,546.122
	 M132.95,543.542c2.914,0.392,6.572,1.978,9.468,1.124c6.329-1.869,12.653-11.196,17.215-15.758l36.152-36.152L302.52,386.022
	l33.569-33.571c6.346-6.346,12.449-13.762,19.798-18.937c-5.308-2.164-12.901,1.179-18.077,2.866
	c-8.788,2.869-20.35,7.688-26.125,15.29c-2.779,3.659-3.448,8.667-5.232,12.832c-2.5,5.845-6.251,11.3-10.072,16.354
	c-12.327,16.306-28.404,27.102-43.17,40.69c-26.703,24.581-51.557,51.567-77.223,77.232l-29.266,29.267
	C142.001,532.769,135.798,537.434,132.95,543.542z"/>
<path fill="#0F2036" d="M367.937,336.959L226.772,478.123l-44.761,44.76c-7.99,7.991-17.59,15.72-24.101,24.96l3.443,1.725
	c5.174-7.347,12.589-13.45,18.937-19.799l33.57-33.569l105.874-105.875l37.872-37.871
	C361.621,348.44,370.599,343.499,367.937,336.959z"/>
<path fill="#0F2036" d="M142.418,337.818"/>
<path fill="#0F2036" d="M104.544,431.641c9.496-4.427,17.589-15.865,24.963-23.238l42.177-42.178
	c6.415-6.415,15.938-13.241,19.798-21.518l-0.861-0.861c-4.495,2.097-7.714,5.993-11.19,9.471
	c-5.73,5.727-11.359,11.581-17.215,17.18C142.126,389.703,115.978,404.98,104.544,431.641z"/>
<path fill="#0F2036" d="M366.216,343.844c-6.917,5.27-12.799,11.938-18.938,18.076l-30.126,30.127l-93.823,93.823l-42.178,42.177
	c-6.415,6.416-15.937,13.242-19.797,21.519c3.285,0.415,7.093,1.528,10.329,0.344c5.309-1.952,9.862-8.485,13.772-12.396
	l27.544-27.542l116.203-116.202l16.354-16.354c2.811-2.81,6.336-5.521,8.535-8.854c2.165-3.285,2.951-7.459,4.798-10.944
	C361.022,353.595,366.449,348.401,366.216,343.844 M95.937,454.883c24.656-22.795,47.692-47.691,71.443-71.443l20.659-20.658
	c3.979-3.981,8.788-7.761,11.19-12.911c-1.905-1.278-4.423-3.551-6.887-3.346c-3.086,0.256-5.726,3.913-7.746,5.928l-16.354,16.355
	l-48.203,48.199C108.907,428.14,97.399,438.132,95.937,454.883z"/>
<path fill="#0F2036" d="M125.203,379.136"/>
<path fill="#0F2036" d="M199.229,350.73l-78.33,78.33l-18.937,18.936l-6.025,6.886l-0.861-0.861v4.305
	c4.825-2.251,8.321-6.601,12.051-10.329l18.076-18.077l49.924-49.922c8.538-8.539,16.809-18.868,26.684-25.823
	C200.988,352.652,200.462,351.929,199.229,350.73z"/>
<path fill="#0F2036" d="M92.494,474.68c11.137-7.845,20.497-19.637,30.127-29.265l56.809-56.812l17.215-17.214
	c2.388-2.391,6.218-5.171,7.069-8.607c0.68-2.743-1.072-6.047-1.905-8.607c-4.495,2.095-7.714,5.992-11.19,9.47l-17.215,17.214
	l-56.809,56.81l-14.634,14.631c-2.41,2.4-5.8,4.78-7.305,7.895C92.721,464.203,92.683,470.283,92.494,474.68z"/>
<path fill="#0F2036" d="M204.393,362.781l-83.495,83.493l-19.797,19.798c-3.899,3.899-8.172,7.132-8.608,12.911
	c11.137-7.844,20.497-19.637,30.127-29.267l57.67-57.67c6.599-6.6,13.225-13.171,19.796-19.8
	C202.798,369.515,206.354,366.769,204.393,362.781z"/>
<path fill="#0F2036" d="M305.963,363.643l-34.43,34.432c-6.35,6.345-13.764,12.449-18.938,19.796
	c6.412,2.603,11.366-5.341,15.492-9.468c9.968-9.968,20.132-19.771,29.946-29.882C301.332,375.124,306.787,368.599,305.963,363.643z
	"/>
<path fill="#0F2036" d="M205.253,366.223l-84.355,84.356l-18.937,18.937c-2.999,2.999-7.44,6.237-8.949,10.329
	c-1.305,3.539-0.519,8.324-0.519,12.051c11.766-8.289,21.671-20.811,31.848-30.987l60.253-60.254l18.076-18.076
	c2.274-2.274,6.399-5.203,6.89-8.607C210,370.912,207.273,368.091,205.253,366.223z"/>
<path fill="#0F2036" d="M169.962,550.427c6.181,2.562,10.71-3.824,14.633-7.747l30.127-30.126l101.569-101.571l26.683-26.684
	c4.334-4.333,9.724-8.46,11.189-14.632c-6.106,2.847-10.772,9.051-15.493,13.772l-29.266,29.266l-98.987,98.987l-25.823,25.82
	C180.12,541.99,175.753,547.726,169.962,550.427z"/>
<path fill="#0F2036" d="M352.442,373.11c-4.281,6.078-10.243,11.104-15.494,16.354l-27.543,27.542l-86.938,86.938l-30.987,30.988
	c-5.208,5.207-12.353,10.479-15.494,17.213l13.772,0.862c-0.514-1.029-0.4-0.841-1.721-1.722c5.76-4.059,10.519-9.658,15.494-14.633
	l24.961-24.963l79.191-79.189l35.29-35.292c5.451-5.45,13.069-11.029,16.355-18.074C356.621,377.423,354.543,375.518,352.442,373.11
	z"/>
<path fill="#0F2036" d="M92.494,496.199c10.82-7.623,19.909-19.048,29.267-28.404l54.227-54.229l24.102-24.101
	c4.229-4.229,9.499-8.3,12.05-13.771l-0.861-0.862c-4.494,2.098-7.714,5.993-11.189,9.47l-18.077,18.076l-61.975,61.975
	l-19.798,19.798C96.562,487.829,92.903,490.777,92.494,496.199z"/>
<path fill="#0F2036" d="M212.139,376.553l-89.518,89.52l-20.659,20.658c-2.999,3.001-7.44,6.236-8.949,10.329
	c-1.305,3.54-0.519,8.324-0.519,12.05c10.505-7.398,19.322-18.46,28.405-27.543l63.697-63.697
	c10.724-10.723,21.173-23.976,33.57-32.709C216.753,381.825,214.725,379.087,212.139,376.553z"/>
<path fill="#0F2036" d="M298.215,377.414l0.86,0.858L298.215,377.414 M297.355,378.273l0.859,0.862L297.355,378.273
	 M296.493,379.136c-11.271,11.271-25.252,22.26-34.43,35.291c10.493-4.806,20.615-16.302,28.037-24.962
	C292.534,386.621,296.69,383.043,296.493,379.136z"/>
<path fill="#0F2036" d="M188.039,552.147l4.303,1.722c1.503-5.354,8.184-9.901,12.052-13.772l30.126-30.126l87.797-87.797
	l25.822-25.823c4.805-4.803,10.616-9.407,13.772-15.492c-5.756,0.245-9.926,6.485-13.772,10.329l-30.986,30.987l-86.076,86.075
	l-27.545,27.543C198.281,541.043,192.32,546.069,188.039,552.147z"/>
<path fill="#0F2036" d="M361.051,381.718c-4.281,6.078-10.244,11.104-15.495,16.354l-28.404,28.404l-88.659,88.658l-23.24,23.242
	c-4.7,4.698-9.939,9.19-13.772,14.632c2.908,0.867,7.329,2.026,10.329,1.123c5.23-1.568,10.022-8.562,13.773-12.314l24.962-24.96
	l92.962-92.964l24.101-24.101c3.777-3.777,7.554-9.106,12.911-10.329C368.493,385.681,365.018,383.252,361.051,381.718z"/>
<path fill="#0F2036" d="M92.494,513.413c8.296-5.843,15.21-14.349,22.379-21.518l41.317-41.316l41.315-41.317
	c7.444-7.442,16.314-14.63,22.38-23.238c-4.626-0.654-7.236,2.938-10.329,6.023l-20.659,20.658l-71.443,71.444l-17.216,17.214
	C96.562,505.044,92.903,507.993,92.494,513.413z"/>
<path fill="#0F2036" d="M92.494,526.326c5.578-3.195,10.093-9.234,14.633-13.772l28.406-28.407l90.38-90.379
	c-1.292-2.059-3.193-5.85-6.059-5.848c-3.501,0.002-7.201,5.334-9.435,7.568l-21.519,21.518l-71.443,71.444l-16.355,16.355
	c-2.765,2.766-6.697,5.696-8.089,9.471C91.708,517.814,92.494,522.6,92.494,526.326z"/>
<path fill="#0F2036" d="M202.67,554.729c6.759-1.073,10.87-6.563,15.494-11.188l27.545-27.545l86.937-86.937l25.822-25.823
	c4.476-4.475,10.211-8.842,12.912-14.633c-6.234,0.979-10.386,6.942-14.634,11.19l-30.126,30.126l-82.633,82.634l-26.684,26.685
	C212.328,544.212,206.728,548.97,202.67,554.729z"/>
<path fill="#0F2036" d="M205.253,553.869c4.973,2.391,10.962,1.724,16.355,1.724c-0.515-1.029-0.401-0.841-1.721-1.724
	c5.76-4.057,10.52-9.657,15.493-14.632l25.825-25.823l80.909-80.91c10.328-10.326,20.768-20.553,30.985-30.987
	c2.8-2.859,7.068-10.786-0.86-10.892c-4.25-0.057-9.311,7.294-12.049,10.029l-30.988,30.99l-85.215,85.214l-24.963,24.961
	C214.797,546.047,210.726,551.318,205.253,553.869z"/>
<path fill="#0F2036" d="M94.214,528.908c11.452-8.067,21.084-20.224,30.987-30.128l59.394-59.392l28.404-28.406
	c5.06-5.058,11.309-9.945,14.634-16.354c-4.208-0.062-6.6,3.162-9.469,6.024l-18.937,18.938L121.76,497.06l-20.659,20.657
	C97.833,520.99,93.753,523.985,94.214,528.908z"/>
<path fill="#0F2036" d="M226.772,395.49c-8.733,12.397-21.987,22.847-32.709,33.57l-63.697,63.694l-23.24,23.241
	c-4.229,4.229-9.499,8.298-12.051,13.772c3.443,1.412,6.624,2.89,10.329,3.443c1.344-4.795,6.873-8.595,10.329-12.052l24.963-24.961
	l93.822-93.822C232.365,399.328,230.168,397.075,226.772,395.49z"/>
<path fill="#0F2036" d="M378.266,395.49L272.394,501.362l-33.57,33.571c-6.348,6.346-13.762,12.45-18.937,19.796
	c5.958,0.217,9.871-5.566,13.772-9.468l29.265-29.266l117.925-117.924C379.899,396.818,379.521,396.44,378.266,395.49z"/>
<path fill="#0F2036" d="M380.849,397.211L275.836,502.226l-33.57,33.566c-6.348,6.35-12.452,13.764-19.798,18.938
	c4.462,2.673,10.452,1.723,15.494,1.723c-0.515-1.03-0.401-0.842-1.721-1.723c7.031-4.951,12.863-12.001,18.937-18.074l31.846-31.85
	l100.712-100.708C385.762,401.306,383.642,399.185,380.849,397.211z"/>
<path fill="#0F2036" d="M104.544,534.072c5.696-1.937,9.613-7.031,13.773-11.189l21.519-21.52l66.278-66.276l19.798-19.8
	c3.729-3.729,8.079-7.225,10.33-12.05l-0.861-0.86c-4.824,2.249-8.321,6.6-12.051,10.328l-19.796,19.799l-67.14,67.139
	l-22.379,22.38C110.424,525.61,105.917,529.014,104.544,534.072z"/>
<path fill="#0F2036" d="M106.266,534.072c2.639,1.391,6.36,3.534,9.468,2.764c3.744-0.925,6.867-5.325,9.469-7.929l20.658-20.658
	l64.557-64.558c10.724-10.723,21.173-23.976,33.57-32.709v-1.722c-1.898-1.313-4.436-4.141-6.886-4.126
	c-3.545,0.024-7.202,5.304-9.468,7.568l-21.52,21.52C172.919,467.418,138.125,499.611,106.266,534.072z"/>
<path fill="#0F2036" d="M386.873,404.098L286.164,504.806l-31.848,31.85c-6.074,6.073-13.125,11.906-18.076,18.938
	c5.645,0.471,9.224-4.924,12.911-8.608l27.544-27.545l112.761-112.761C388.508,405.426,388.127,405.047,386.873,404.098z"/>
<path fill="#0F2036" d="M239.684,556.452c3.789,0,9.121,0.963,12.666-0.518c4.34-1.814,8.16-7.398,11.435-10.672l24.963-24.962
	L395.48,413.565c-1.254-2.161-3.076-5.848-6.038-5.846c-3.754,0.001-7.909,6.021-10.315,8.429l-24.103,24.101l-76.605,76.608
	l-24.963,24.961C248.756,546.519,243.518,551.01,239.684,556.452z"/>
<path fill="#0F2036" d="M116.596,538.377l3.442,0.859c3.833-5.44,9.072-9.933,13.772-14.633l24.101-24.101
	c29.475-29.475,60.37-58.061,88.658-88.659c-5.037-1.109-7.836,2.68-11.189,6.025l-21.519,21.519l-67.139,67.139l-19.798,19.799
	C123.195,530.054,118.845,533.551,116.596,538.377z"/>
<path fill="#0F2036" d="M120.038,539.237c2.562,0.833,5.865,2.582,8.608,1.903c3.12-0.771,5.577-4.042,7.746-6.207l15.494-15.493
	l72.304-72.303l21.519-21.521c1.944-1.95,6.614-5.286,5.727-8.524c-1.476-5.399-7.226-3.435-10.031-0.894
	c-8.377,7.596-16.104,16.054-24.102,24.052l-67.138,67.139l-19.798,19.798C126.64,530.915,122.287,534.411,120.038,539.237z"/>
<path fill="#0F2036" d="M253.456,556.452c5.9-1.54,9.587-6.144,13.772-10.33l19.798-19.796l77.467-77.468l22.38-22.382
	c3.831-3.83,8.606-7.32,9.471-12.911c-5.792,2.702-10.158,8.437-14.634,12.911l-24.963,24.964l-71.442,71.442l-20.66,20.659
	C260.666,547.52,255.856,551.301,253.456,556.452z"/>
<path fill="#0F2036" d="M261.203,414.427l0.86,0.86L261.203,414.427 M260.341,415.287l0.862,0.861L260.341,415.287z"/>
<path fill="#0F2036" d="M396.343,415.287c-8.735,12.396-21.986,22.849-32.711,33.571l-64.557,64.555l-28.404,28.405
	c-4.722,4.722-9.387,10.926-15.495,13.774c4.708,1.974,11.274,0.859,16.354,0.859c1.181-4.212,5.57-7.293,8.608-10.33l19.798-19.796
	l73.164-73.165l20.658-20.658c2.429-2.428,7.288-5.806,7.728-9.47C401.879,419.767,398.603,417.033,396.343,415.287z"/>
<path fill="#0F2036" d="M259.479,416.148l0.861,0.858L259.479,416.148 M258.621,417.007l0.858,0.862L258.621,417.007z"/>
<path fill="#0F2036" d="M129.507,541.818c4.944,0.699,7.924-3.62,11.189-6.884l20.659-20.659l63.695-63.696l18.937-18.938
	c4.029-4.027,8.543-7.809,11.19-12.908c-4.901,0.208-7.89,4.447-11.19,7.745l-21.52,21.519l-61.114,61.115
	C150.904,519.561,138.018,529.736,129.507,541.818z"/>
<path fill="#0F2036" d="M257.759,417.869l0.861,0.861L257.759,417.869z"/>
<path fill="#0F2036" d="M270.672,555.593c4.944,0.696,7.923-3.621,11.188-6.888l22.381-22.379l67.998-68.001l20.66-20.658
	c4.029-4.029,8.543-7.809,11.189-12.91c-4.821-0.073-7.957,4.514-11.189,7.746l-23.241,23.238l-65.417,65.419
	C293.243,532.159,279.629,542.878,270.672,555.593z"/>
<path fill="#0F2036" d="M403.228,425.617c-7.621,10.821-19.047,19.908-28.404,29.266l-67.139,67.139
	c-10.996,10.996-24.614,21.72-33.57,34.431c6.079,0,12.035-0.699,18.076-0.848c4.278-0.105,9.507,0.413,13.525-1.38
	c3.138-1.398,5.616-4.861,7.992-7.24l15.494-15.495l53.368-53.366l21.519-21.52c2.832-2.832,7.928-6.36,9.118-10.328
	c0.931-3.104-1.632-6.901-3.093-9.469c-30.005,27.74-58.036,58.034-86.937,86.937l-21.52,21.52
	c-3.831,3.831-7.322,8.604-12.91,9.467l92.101-92.1l18.937-18.938c2.575-2.574,7.07-5.755,7.974-9.467
	c0.697-2.864-1.728-6.08-2.809-8.607H403.228z"/>
<path fill="#0F2036" d="M408.393,433.362c-7.179,10.191-17.872,18.732-26.684,27.546l-61.115,61.113
	c-10.449,10.45-23.336,20.627-31.847,32.708c5.421-0.406,8.37-4.065,12.051-7.745l15.494-15.495l67.999-67.998
	c6.598-6.6,13.245-13.152,19.796-19.8C407.019,440.717,410.627,437.651,408.393,433.362z"/>
<path fill="#0F2036" d="M413.558,446.275l-74.026,74.025l-21.519,21.518c-3.979,3.981-8.788,7.761-11.188,12.911
	c5.071-0.399,7.762-4.315,11.188-7.745l18.938-18.938l50.786-50.786c8.81-8.811,17.354-19.504,27.543-26.684
	C414.946,448.733,414.638,447.78,413.558,446.275z"/>
<path fill="#0F2036" d="M311.127,553.869c4.192,0,8.948,0.288,12.91-1.347c7.746-3.192,14.801-13.452,20.658-19.311l51.647-51.646
	l14.63-14.634c2.181-2.189,5.237-4.598,5.99-7.745c0.667-2.79-0.717-6.047-1.685-8.608c-5.151,2.4-8.932,7.21-12.91,11.189
	l-20.659,20.657l-46.481,46.481C327.237,536.897,317.639,544.626,311.127,553.869z"/>
<path fill="#0F2036" d="M94.214,454.883"/>
<path fill="#0F2036" d="M417,459.188c-6.735,9.559-16.699,17.559-24.961,25.822l-46.482,46.479
	c-6.896,6.896-15.036,13.541-20.658,21.52c9.662-1.535,17.499-13.196,24.103-19.8l49.063-49.062l12.91-12.91
	c2.361-2.358,4.517-5.058,7.749-6.026C418.308,463.091,417.938,461.124,417,459.188z"/>
<path fill="#0F2036" d="M417,464.351l-57.671,57.671c-9.63,9.629-21.422,18.991-29.266,30.126
	c21.925-0.94,44.636-7.288,65.417-13.938c6.394-2.047,18.491-4.711,22.603-10.346c2.19-3.005,1.499-7.509,1.499-11.007v-24.103
	C419.582,484.788,422.049,470.98,417,464.351z"/>
<path fill="#0F2036" d="M91.633,474.68"/>
<path fill="#0F2036" d="M91.633,491.896"/>
<path fill="#0F2036" d="M91.633,509.109"/>
<path fill="#0F2036" d="M91.633,515.135"/>
<path fill="#0F2036" d="M95.076,529.769l-1.722-3.442"/>
<path fill="#0F2036" d="M413.558,530.629l0.86,0.86L413.558,530.629"/>
</svg>
